<svg width="194" height="50" viewBox="0 0 194 50" fill="none" xmlns="http://www.w3.org/2000/svg">
<path d="M66.2198 40.8132C66.4078 40.7755 66.7212 40.8761 66.6587 41.0528C66.5333 41.4434 66.0443 41.6575 65.9318 41.6324C65.6183 41.5821 66.0322 40.8509 66.2202 40.8132H66.2198Z" fill="#EEE3FF"/>
<path d="M68.4632 40.8132C68.6512 40.7755 68.9646 40.8761 68.9021 41.0528C68.7766 41.4434 68.2877 41.6575 68.1751 41.6324C67.8617 41.5821 68.2752 40.8509 68.4632 40.8132Z" fill="#EEE3FF"/>
<path d="M70.7069 40.8132C70.8949 40.7755 71.2083 40.8761 71.1458 41.0528C71.0203 41.4434 70.5314 41.6575 70.4188 41.6324C70.1054 41.5821 70.5192 40.8509 70.7072 40.8132H70.7069Z" fill="#EEE3FF"/>
<path d="M74.9434 39.1623C74.8683 38.9104 76.2221 38.406 76.8486 37.94C77.7639 37.272 78.3154 36.3397 78.1524 36.1884C77.9894 36.0246 77.325 36.2387 76.6356 36.6296C75.9337 37.0202 74.0785 38.4821 73.6021 40.2337C73.1386 41.9978 74.4795 42.5651 75.5074 42.1113C75.6703 42.0355 76.2972 41.6072 75.8583 42.1997C75.4823 42.7164 73.6271 42.7415 73.2887 41.3554C73.0256 40.2466 73.5896 38.5705 75.5953 36.7306C77.6009 34.8906 78.2778 35.3947 78.4408 35.5083C78.6038 35.5966 78.8043 35.7479 78.6288 36.3652C78.5284 36.7557 78.0773 37.4236 77.4255 37.9151C76.3726 38.6966 74.9684 39.2506 74.9434 39.1623Z" fill="#EEE3FF"/>
<path d="M83.6173 40.6745C83.4293 40.7374 82.8528 40.8887 82.326 40.8887C81.8121 40.8887 81.0348 40.4352 81.0348 40.4352C81.0348 40.4352 80.8343 41.6827 79.2174 41.6827C78.1521 41.6701 78.0516 40.3217 78.7536 39.6664C79.4558 38.9984 80.0698 39.0742 80.0698 39.0742C80.1199 38.8853 80.4458 38.7088 80.8093 39.0742C81.1727 39.4396 81.1727 40.1453 81.1727 40.1453C81.1727 40.1453 81.1227 40.2714 81.7117 40.4855C82.301 40.6997 82.7774 40.7126 83.5043 40.473C84.2191 40.2333 83.8053 40.6116 83.6173 40.6745ZM80.8471 40.2711C80.4962 40.0066 80.1577 39.3387 80.1577 39.3387C80.1577 39.3387 79.8568 39.4271 79.5434 39.6035C79.0798 39.8554 78.3025 41.0528 79.4179 41.3047C80.2953 41.5063 80.8847 40.2966 80.8468 40.2714L80.8471 40.2711Z" fill="#EEE3FF"/>
<path d="M86.0361 39.2126C85.9357 39.5151 85.4721 40.4981 85.5597 40.4981C85.6348 40.4981 87.9288 38.7214 88.2798 38.7717C88.6308 38.8346 88.8438 39.4019 88.9192 39.6286C89.0196 39.8683 89.2701 40.7378 89.4334 40.7881C89.5964 40.8509 90.3358 40.8006 90.9002 40.5865C91.4391 40.3594 91.9906 40.0321 92.0656 40.0447C92.1535 40.0573 92.2411 40.2337 92.1786 40.2714C92.116 40.3095 91.1132 40.889 90.3984 41.1157C89.6965 41.3424 89.0321 41.3931 88.8191 41.166C88.5807 40.9267 88.4053 40.2588 88.3302 39.9815C88.2676 39.7041 88.1547 39.2884 87.3399 39.7296C86.525 40.1582 85.4972 40.99 85.1712 41.2418C84.8453 41.5192 84.7699 41.7082 84.5694 41.6953C84.3689 41.6827 84.1305 41.4811 84.444 41.0399C84.7699 40.6113 85.3467 39.3387 85.4218 39.2126C85.4593 39.1371 86.1362 38.9101 86.0361 39.2126Z" fill="#EEE3FF"/>
<path d="M94.121 39.2126C94.0206 39.5151 93.557 40.4981 93.6446 40.4981C93.7197 40.4981 96.0137 38.7214 96.3647 38.7717C96.7157 38.8346 96.9287 39.4019 97.0041 39.6286C97.1045 39.8683 97.355 40.7378 97.5183 40.7881C97.6813 40.8509 98.4207 40.8006 98.985 40.5865C99.524 40.3594 100.075 40.0321 100.151 40.0447C100.238 40.0573 100.326 40.2337 100.263 40.2714C100.201 40.3095 99.1981 40.889 98.4833 41.1157C97.7814 41.3424 97.117 41.3931 96.904 41.166C96.6656 40.9267 96.4901 40.2588 96.4151 39.9815C96.3525 39.7041 96.2396 39.2884 95.4247 39.7296C94.6099 40.1582 93.582 40.99 93.2561 41.2418C92.9302 41.5192 92.8548 41.7082 92.6543 41.6953C92.4538 41.6827 92.2154 41.4811 92.5288 41.0399C92.8548 40.6113 93.4316 39.3387 93.5066 39.2126C93.5442 39.1371 94.2211 38.9101 94.121 39.2126Z" fill="#EEE3FF"/>
<path d="M105.064 40.6368C104.374 41.1786 103.785 41.6198 102.243 41.6701C100.864 41.7204 100.25 40.4478 101.24 39.5151C102.206 38.595 102.995 38.6708 103.171 38.9481C103.346 39.2255 103.246 39.4774 102.957 39.8302C102.669 40.1704 101.416 40.7248 101.416 40.7248C101.541 40.9645 101.666 41.2792 102.356 41.3676C103.81 41.5566 104.9 40.5233 105.051 40.473C105.239 40.4478 105.063 40.6368 105.063 40.6368H105.064ZM102.469 39.8302C102.82 39.5025 102.895 39.2381 102.682 39.1749C102.481 39.112 101.454 39.7418 101.354 40.2966C101.328 40.3594 102.118 40.1704 102.469 39.8302H102.469Z" fill="#EEE3FF"/>
<path d="M107.996 39.3387C107.733 39.4145 106.843 39.8931 106.643 40.2711C106.43 40.6494 106.392 41.3421 107.156 41.2918C107.921 41.2289 109.2 40.8887 109.764 40.6239C110.315 40.372 110.904 40.2078 110.553 40.4097C110.203 40.6113 109.501 41.0274 108.999 41.2038C108.498 41.3802 106.981 41.7833 106.517 41.6701C106.041 41.544 105.602 40.8635 106.58 39.9311C107.57 38.9859 108.535 38.6963 108.773 38.8601C109.011 39.0239 109.024 39.339 108.924 39.339C108.824 39.339 108.259 39.2507 107.996 39.3387Z" fill="#EEE3FF"/>
<path d="M115.78 40.7248C115.191 41.2038 113.173 41.7959 112.195 41.6572C111.205 41.5185 111.343 40.2836 111.418 39.9685C111.506 39.6534 112.107 38.494 112.107 38.494C112.107 38.494 110.904 38.6201 110.716 38.6327C110.528 38.6453 110.829 38.2166 110.892 38.1789C110.967 38.1412 112.283 38.2041 112.283 38.2041C112.283 38.2041 112.584 37.7 113.399 37.0321C114.339 36.2632 114.502 36.6541 114.502 36.906C114.502 37.1707 114.101 38.1786 114.101 38.1786C114.101 38.1786 115.229 38.166 115.693 38.1786C116.157 38.1912 116.044 38.3298 115.881 38.4053C115.718 38.4937 113.863 38.4053 113.863 38.4053C113.863 38.4053 113.687 38.6827 113.249 39.2119C112.81 39.7286 111.92 40.4091 111.92 40.4091C111.92 40.4091 111.681 41.2157 112.785 41.3163C113.875 41.4047 115.166 40.8122 115.48 40.6358C115.793 40.4594 116.357 40.2326 115.781 40.7242L115.78 40.7248ZM111.957 39.9182C111.969 40.0066 112.057 39.9685 112.283 39.7418C112.521 39.5277 113.537 38.4186 113.537 38.4186L112.747 38.4814C112.747 38.4814 111.932 39.477 111.957 39.9179V39.9182ZM112.985 38.1541H113.8C113.8 38.1541 114.251 37.1711 114.151 37.1208C114.038 37.0705 113.574 37.3349 112.985 38.1541H112.985Z" fill="#EEE3FF"/>
<path d="M118.162 39.2381C118.187 39.3139 118.187 39.4019 118.149 39.4899C118.111 39.5783 118.049 39.6789 117.961 39.805C117.861 39.9311 117.76 40.095 117.647 40.3091C117.522 40.5358 117.484 40.7123 117.509 40.8509C117.534 40.9896 117.61 41.0906 117.722 41.166C117.835 41.2418 117.961 41.3047 118.149 41.3047C118.575 41.3173 118.776 41.2544 118.964 41.1912C119.152 41.1409 119.352 41.0399 119.528 40.9516C119.716 40.8635 119.929 40.7626 120.054 40.6745C120.229 40.5484 120.405 40.5233 120.455 40.5358C120.53 40.5736 120.468 40.662 120.455 40.6745C120.43 40.6997 120.342 40.7626 120.192 40.8384C120.042 40.9142 119.854 41.0022 119.653 41.1028C119.44 41.1912 119.227 41.3044 118.989 41.4053C118.5 41.6069 118.324 41.6701 117.773 41.6572C117.572 41.6572 117.384 41.5817 117.221 41.5059C117.071 41.4305 116.958 41.3421 116.92 41.216C116.895 41.1276 116.895 41.0019 116.92 40.8506C116.958 40.6993 116.996 40.5481 117.071 40.3591C117.133 40.1953 117.209 40.0188 117.296 39.8424C117.384 39.666 117.472 39.5148 117.56 39.3761C117.647 39.2374 117.723 39.1364 117.785 39.0484C117.848 38.9729 117.898 38.9475 117.923 38.96C118.049 39.0736 118.136 39.1616 118.162 39.2374V39.2381ZM118.738 37.1589C118.726 37.096 118.726 37.0202 118.751 36.9321C118.776 36.8441 118.801 36.7683 118.851 36.6803C118.901 36.5919 118.939 36.5164 118.989 36.4406C119.039 36.3648 119.089 36.3145 119.152 36.2642C119.189 36.2265 119.24 36.2013 119.277 36.2013C119.327 36.2139 119.377 36.2265 119.453 36.2642C119.515 36.3023 119.565 36.34 119.615 36.4029C119.678 36.4532 119.716 36.5038 119.728 36.5667C119.753 36.6296 119.753 36.6928 119.716 36.7306C119.678 36.7809 119.615 36.8567 119.528 36.9321C119.44 37.0076 119.352 37.0834 119.265 37.1463C119.164 37.2092 119.077 37.2595 119.001 37.285C118.914 37.3353 118.851 37.3353 118.839 37.3227C118.776 37.285 118.738 37.2346 118.738 37.1589H118.738Z" fill="#EEE3FF"/>
<path d="M122.736 39.2126C122.636 39.5151 122.172 40.4981 122.26 40.4981C122.335 40.4981 124.629 38.7214 124.98 38.7717C125.331 38.8346 125.544 39.4019 125.619 39.6286C125.72 39.8683 125.97 40.7378 126.134 40.7881C126.297 40.8509 127.036 40.8006 127.6 40.5865C128.139 40.3594 128.691 40.0321 128.766 40.0447C128.854 40.0573 128.941 40.2337 128.879 40.2714C128.816 40.3095 127.813 40.889 127.099 41.1157C126.397 41.3424 125.732 41.3931 125.519 41.166C125.281 40.9267 125.105 40.2588 125.03 39.9815C124.968 39.7041 124.855 39.2884 124.04 39.7296C123.225 40.1582 122.197 40.99 121.871 41.2418C121.545 41.5192 121.47 41.7082 121.27 41.6953C121.069 41.6827 120.831 41.4811 121.144 41.0399C121.47 40.6113 122.047 39.3387 122.122 39.2126C122.159 39.1371 122.836 38.9101 122.736 39.2126Z" fill="#EEE3FF"/>
<path d="M133.253 41.645C132.012 42.2119 131.736 42.3129 131.699 42.3129C131.648 42.4767 131.235 44.0016 130.307 45.0855C129.342 46.2195 128.652 46.711 128.001 46.7742C127.361 46.85 126.02 46.6858 126.985 45.0101C127.963 43.3214 131.272 42.0111 131.347 41.9478C131.422 41.872 131.561 41.0658 131.448 41.1161C131.322 41.1538 130.194 41.7463 129.768 41.6956C129.342 41.6453 129.091 40.8387 129.492 40.2843C129.906 39.7299 130.395 39.3519 130.583 39.2258C131.347 38.7595 132.513 38.5328 132.513 39.3645C132.513 40.1963 131.836 41.8598 131.836 41.8598C131.836 41.8598 133.591 41.2925 134.093 40.8265C134.607 40.3601 135.096 40.8265 133.253 41.6456V41.645ZM131.21 42.4138C131.21 42.4138 129.705 43.006 128.327 44.1402C126.935 45.2871 127.123 46.2827 127.575 46.2827C128.026 46.2827 129.455 45.577 130.157 44.594C130.859 43.5984 131.21 42.4138 131.21 42.4138ZM132.037 39.4145C131.899 39.1245 131.423 39.2255 130.921 39.6035C130.407 39.994 129.818 40.6745 129.881 41.0528C129.969 41.494 130.508 41.3173 131.21 40.9142C131.912 40.511 132.162 39.7044 132.037 39.4145Z" fill="#EEE3FF"/>
<path d="M145.9 40.7248C145.311 41.2038 143.293 41.7959 142.315 41.6572C141.325 41.5185 141.463 40.2836 141.538 39.9685C141.626 39.6534 142.227 38.494 142.227 38.494C142.227 38.494 141.024 38.6201 140.836 38.6327C140.648 38.6453 140.949 38.2166 141.011 38.1789C141.086 38.1412 142.403 38.2041 142.403 38.2041C142.403 38.2041 142.704 37.7 143.518 37.0321C144.459 36.2632 144.622 36.6541 144.622 36.906C144.622 37.1707 144.221 38.1786 144.221 38.1786C144.221 38.1786 145.349 38.166 145.813 38.1786C146.276 38.1912 146.164 38.3298 146.001 38.4053C145.838 38.4937 143.983 38.4053 143.983 38.4053C143.983 38.4053 143.807 38.6827 143.368 39.2119C142.93 39.7286 142.04 40.4091 142.04 40.4091C142.04 40.4091 141.801 41.2157 142.904 41.3163C143.995 41.4047 145.286 40.8122 145.6 40.6358C145.913 40.4594 146.477 40.2326 145.9 40.7242L145.9 40.7248ZM142.077 39.9182C142.089 40.0066 142.177 39.9685 142.403 39.7418C142.641 39.5277 143.656 38.4186 143.656 38.4186L142.867 38.4814C142.867 38.4814 142.052 39.477 142.077 39.9179V39.9182ZM143.105 38.1541H143.919C143.919 38.1541 144.371 37.1711 144.27 37.1208C144.158 37.0705 143.694 37.3349 143.105 38.1541H143.105Z" fill="#EEE3FF"/>
<path d="M153.057 40.6871C151.966 41.2792 151.879 41.4686 151.114 41.2541C150.349 41.0399 150.123 40.1704 149.773 40.1072C149.422 40.0318 148.933 40.4223 148.545 40.7248C148.156 41.0148 147.379 41.6701 147.141 41.6701C147.003 41.6701 146.614 41.3173 146.664 41.1409C146.677 41.0777 146.714 40.7626 147.028 40.2714C149.021 37.1211 149.71 36.4026 150.626 35.8356C151.553 35.2557 152.405 35.218 152.405 35.9488C152.418 36.6796 151.077 37.751 150.425 38.2425C149.785 38.734 148.181 39.5783 148.081 39.6035C148.081 39.6035 147.955 39.8683 147.742 40.1704C147.529 40.4855 147.328 40.9012 147.466 40.9645C147.617 41.0274 147.893 40.7881 148.118 40.5991C148.344 40.4101 149.635 39.5029 150.061 39.5532C150.475 39.6035 150.6 40.0447 151.001 40.5236C151.402 40.99 151.841 40.8639 152.242 40.7378C152.631 40.6116 154.16 40.0946 153.057 40.6871ZM148.645 38.8094C148.72 38.7843 150.249 38.1667 151.239 37.083C152.242 36.012 151.904 35.9613 151.841 35.8985C151.791 35.8356 151.227 35.8227 150.124 36.8941C149.021 37.9777 148.645 38.8094 148.645 38.8094Z" fill="#EEE3FF"/>
<path d="M158.284 40.6368C157.594 41.1786 157.005 41.6198 155.463 41.6701C154.084 41.7204 153.47 40.4478 154.46 39.5151C155.426 38.595 156.215 38.6708 156.391 38.9481C156.566 39.2255 156.466 39.4774 156.178 39.8302C155.889 40.1704 154.636 40.7248 154.636 40.7248C154.761 40.9645 154.886 41.2792 155.576 41.3676C157.03 41.5566 158.12 40.5233 158.271 40.473C158.459 40.4478 158.283 40.6368 158.283 40.6368H158.284ZM155.689 39.8302C156.04 39.5025 156.115 39.2381 155.902 39.1749C155.702 39.112 154.674 39.7418 154.574 40.2966C154.548 40.3594 155.338 40.1704 155.689 39.8302H155.689Z" fill="#EEE3FF"/>
<path d="M170.63 36.0246C170.63 36.0246 171.169 36.1378 170.617 36.7554C170.617 36.7554 167.145 41.355 166.969 41.5063C166.794 41.6575 166.318 41.7962 166.005 41.6072C166.005 41.6072 168.449 38.6079 169.276 37.6504C170.103 36.6925 170.63 36.0249 170.63 36.0249L170.63 36.0246ZM170.116 35.3944C172.711 35.1677 174.152 37.0956 173.325 38.8601C172.122 41.4182 168.299 41.8343 167.822 41.6324C167.346 41.4434 168.574 41.355 168.574 41.355C175.995 39.2884 172.172 35.596 170.379 35.6085C169.865 35.6085 169.289 35.7221 169.289 35.7221C169.188 35.4824 170.116 35.3944 170.116 35.3944H170.116Z" fill="#EEE3FF"/>
<path d="M179.843 40.6745C179.655 40.7374 179.078 40.8887 178.551 40.8887C178.037 40.8887 177.26 40.4352 177.26 40.4352C177.26 40.4352 177.06 41.6827 175.443 41.6827C174.377 41.6701 174.277 40.3217 174.979 39.6664C175.681 38.9984 176.295 39.0742 176.295 39.0742C176.345 38.8853 176.671 38.7088 177.035 39.0742C177.398 39.4396 177.398 40.1453 177.398 40.1453C177.398 40.1453 177.348 40.2714 177.937 40.4855C178.526 40.6997 179.003 40.7126 179.73 40.473C180.445 40.2333 180.031 40.6116 179.843 40.6745ZM177.073 40.2711C176.722 40.0066 176.383 39.3387 176.383 39.3387C176.383 39.3387 176.082 39.4271 175.769 39.6035C175.305 39.8554 174.528 41.0528 175.643 41.3047C176.521 41.5063 177.11 40.2966 177.072 40.2714L177.073 40.2711Z" fill="#EEE3FF"/>
<path d="M185.483 40.7248C184.894 41.2038 182.876 41.7959 181.898 41.6572C180.908 41.5185 181.046 40.2836 181.121 39.9685C181.209 39.6534 181.81 38.494 181.81 38.494C181.81 38.494 180.607 38.6201 180.419 38.6327C180.231 38.6453 180.532 38.2166 180.594 38.1789C180.669 38.1412 181.986 38.2041 181.986 38.2041C181.986 38.2041 182.287 37.7 183.101 37.0321C184.042 36.2632 184.205 36.6541 184.205 36.906C184.205 37.1707 183.804 38.1786 183.804 38.1786C183.804 38.1786 184.932 38.166 185.395 38.1786C185.859 38.1912 185.746 38.3298 185.584 38.4053C185.421 38.4937 183.566 38.4053 183.566 38.4053C183.566 38.4053 183.39 38.6827 182.951 39.2119C182.512 39.7286 181.622 40.4091 181.622 40.4091C181.622 40.4091 181.384 41.2157 182.487 41.3163C183.578 41.4047 184.869 40.8122 185.182 40.6358C185.496 40.4594 186.06 40.2326 185.483 40.7242L185.483 40.7248ZM181.66 39.9182C181.672 40.0066 181.76 39.9685 181.986 39.7418C182.224 39.5277 183.239 38.4186 183.239 38.4186L182.449 38.4814C182.449 38.4814 181.635 39.477 181.66 39.9179V39.9182ZM182.688 38.1541H183.502C183.502 38.1541 183.953 37.1711 183.853 37.1208C183.74 37.0705 183.277 37.3349 182.688 38.1541Z" fill="#EEE3FF"/>
<path d="M191.675 40.662C191.562 40.8635 190.484 41.3299 189.845 41.5063C189.206 41.6701 187.977 41.7962 187.313 41.5063C186.661 41.2163 186.523 40.5484 186.636 40.4855C187.801 39.6412 188.165 39.3638 188.203 39.2884C188.228 39.2126 188.215 39.1497 188.228 38.9859C188.253 38.734 188.429 38.5195 188.667 38.5572C188.917 38.6075 188.717 39.1623 188.667 39.3764C188.629 39.5906 188.967 40.2962 189.005 40.6871C189.055 41.0777 188.918 41.2289 188.967 41.3047C189.005 41.3802 189.669 41.2921 190.359 41.0528C191.061 40.801 191.775 40.4607 191.675 40.6623L191.675 40.662ZM188.203 39.6035C188.153 39.6286 187.15 40.3343 187.075 40.3975C186.987 40.4604 187 41.1032 187.626 41.3931C188.253 41.6956 188.454 41.0403 188.478 40.889C188.516 40.6371 188.278 39.578 188.203 39.6035Z" fill="#EEE3FF"/>
<path d="M6.38723 33.584L6.32232 33.6493V33.6486L5.97136 34.0008C5.71068 34.253 5.45946 34.4929 5.22752 34.7503L4.97461 35.0045C3.49031 36.4348 3.10385 39.1436 4.97461 41.0246L6.96878 43.0294C8.72661 44.7966 11.7855 47.8714 12.4495 48.5393C12.4637 48.5536 12.4756 48.5655 12.4877 48.5778C12.5317 48.2586 12.5787 47.9397 12.6318 47.6216C11.4051 42.5202 9.26218 37.7792 6.38689 33.5833L6.38723 33.584Z" fill="#EEE3FF"/>
<path d="M13.5474 43.6239L13.4071 43.4829L10.9615 41.0182C10.8283 40.8788 10.5213 40.5324 10.5524 39.9237C10.5788 39.4097 10.9027 39.0742 10.9632 39.0158L14.4332 35.5259C14.441 35.5188 14.4501 35.5134 14.4579 35.5055C14.4657 35.4977 14.4708 35.4885 14.4782 35.4807C14.7206 35.2139 14.723 34.8091 14.4873 34.5388C14.4768 34.5269 14.4691 34.514 14.4579 34.5025C14.4468 34.4912 14.4336 34.4831 14.4217 34.4729L10.4787 30.5089C10.4723 30.5021 10.4679 30.4939 10.4611 30.4875C10.4544 30.481 10.4466 30.4762 10.4398 30.4698C10.168 30.2172 9.74906 30.2186 9.47925 30.4742C9.47418 30.479 9.46843 30.4824 9.46336 30.4871C9.45829 30.4919 9.45524 30.498 9.45051 30.5031L6.55257 33.4165C6.55257 33.4165 6.55088 33.4195 6.54986 33.4205L6.38723 33.584C9.26252 37.7795 11.4055 42.5209 12.6321 47.6226C12.8563 46.2762 13.1613 44.9407 13.5474 43.6243V43.6239Z" fill="#EEE3FF"/>
<path d="M16.9461 35.0025L17.2578 35.3162C17.6618 34.6649 18.0912 34.0252 18.5433 33.3967L16.9457 35.0028L16.9461 35.0025Z" fill="#EEE3FF"/>
<path d="M26.429 34.5069L21.9318 29.9902L18.5436 33.3964C18.0916 34.0249 17.6618 34.6646 17.2581 35.3159L20.9432 39.0216C21.4909 39.5725 21.4909 40.4655 20.9432 41.0161L16.9478 45.0328C16.3963 45.5876 15.502 45.5879 14.9502 45.0332L13.5474 43.6232C13.1613 44.9397 12.856 46.2752 12.6318 47.6216C12.5787 47.9397 12.532 48.2586 12.4881 48.5778C12.5456 48.6359 12.5801 48.6702 12.5814 48.6716C12.6981 48.7759 12.8147 48.8708 12.931 48.9605C12.932 48.9612 12.9327 48.9619 12.9337 48.9625C13.9254 49.726 14.9069 49.9785 15.9483 49.9992C17.3251 50.0275 18.6572 49.2579 19.6506 48.2973L26.2782 41.6739C27.2703 40.7143 27.8427 39.6127 27.8704 38.2258C27.8974 36.839 27.3822 35.5079 26.4294 34.5062L26.429 34.5069Z" fill="#EEE3FF"/>
<path d="M25.9547 25.9531C25.3806 26.5377 24.0541 27.8674 23.4669 28.4562C23.4547 28.4667 23.4415 28.4749 23.4297 28.4864C23.4185 28.4976 23.4107 28.5105 23.4006 28.5224C23.1646 28.7934 23.1673 29.1985 23.41 29.4653C23.4172 29.4732 23.4222 29.482 23.4297 29.4898C23.4371 29.4973 23.4462 29.5027 23.454 29.5099C24.2645 30.324 26.5508 32.6194 27.3808 33.4532C27.3943 33.4698 27.4058 33.4875 27.4214 33.5028C27.4369 33.5184 27.4549 33.53 27.4714 33.5439C27.7423 33.7706 28.1399 33.7628 28.4006 33.5181C28.4066 33.5126 28.4134 33.5086 28.4195 33.5028C28.4252 33.497 28.4293 33.4899 28.4347 33.4841L32.9106 28.9851C34.2492 27.6166 35.5719 25.5578 35.7744 22.7253C35.818 22.1131 35.8437 21.5227 35.7467 20.9316C35.745 20.917 35.7426 20.9017 35.7409 20.8871C32.3747 21.9547 29.1424 23.5662 26.1792 25.7202C26.0784 25.8236 25.999 25.9055 25.9543 25.9534L25.9547 25.9531Z" fill="#EEE3FF"/>
<path d="M27.9955 10.0096C27.9972 10.0069 27.9985 10.0042 28.0002 10.0015L27.9857 9.98687C26.7479 12.2942 25.2849 14.5114 23.5913 16.6032L23.6075 16.6195C23.6075 16.6195 23.6099 16.6168 23.6109 16.6154L28.9256 21.9687C29.1971 22.2423 29.1971 22.6852 28.9253 22.9585L28.9185 22.9653C28.9185 22.9653 26.9896 24.8926 26.2218 25.6774C26.2069 25.6927 26.1937 25.7063 26.1798 25.7206C29.143 23.5666 32.3754 21.9554 35.7416 20.8871C35.5397 19.1641 34.8936 16.9298 32.9089 14.9397L27.9962 10.01L27.9955 10.0096Z" fill="#EEE3FF"/>
<path d="M9.8204 27.8385L15.9483 33.9991L20.9314 28.9868L15.9388 23.9615C13.9707 25.4303 11.9045 26.7043 9.76597 27.7842L9.78557 27.8039L9.8204 27.8385Z" fill="#EEE3FF"/>
<path d="M15.8553 23.8772C15.8553 23.8772 15.8529 23.8789 15.8516 23.8799L7.96786 15.9495C7.5645 15.5253 7.28454 14.9481 7.36671 14.2041C7.46442 13.3207 8.05205 12.838 8.47233 12.4298L12.4593 8.42155C13.3289 7.57959 14.6192 7.54594 15.4563 8.42155L23.5913 16.6032C25.2849 14.5114 26.7479 12.2942 27.9857 9.98687L20.9432 2.9089C19.1556 1.03227 16.5305 0.0540076 13.9524 0.00166162C11.373 -0.0503445 8.80841 1.12268 6.94779 2.9225L2.96654 6.92187C1.10762 8.72169 0.0547421 11.1446 0.00199695 13.7428C-0.0497339 16.3438 0.905088 18.8085 2.69268 20.6834L9.76593 27.7838C11.9045 26.7039 13.9707 25.4299 15.9388 23.9612L15.8553 23.8772Z" fill="#EEE3FF"/>
<path d="M45.2361 30.3712V17.6749H49.9317C53.87 17.6749 56.5397 20.3017 56.5397 24.0326C56.5397 27.7634 53.87 30.3712 49.9317 30.3712H45.2361ZM54.2676 24.0326C54.2676 21.5771 52.7529 19.6355 49.9317 19.6355H47.4514V28.4106H49.9317C52.6772 28.4106 54.2676 26.431 54.2676 24.0326Z" fill="#EEE3FF"/>
<path d="M58.679 30.3712V17.6749H60.8943V30.3712H58.679Z" fill="#EEE3FF"/>
<path d="M63.0145 24.0329C63.0145 20.0546 65.9872 17.4659 69.6415 17.4659C72.1029 17.4659 73.7123 18.646 74.7348 20.1117L72.9171 21.1396C72.2544 20.1879 71.0616 19.4455 69.6415 19.4455C67.1422 19.4455 65.2866 21.368 65.2866 24.0329C65.2866 26.6978 67.1422 28.6394 69.6415 28.6394C70.929 28.6394 72.0651 28.0303 72.6331 27.4973V25.5176H68.8652V23.5571H74.8484V28.3158C73.5987 29.7053 71.8379 30.619 69.6415 30.619C65.9872 30.619 63.0145 28.0112 63.0145 24.0329Z" fill="#EEE3FF"/>
<path d="M77.1584 30.3712V17.6749H79.3737V30.3712H77.1584Z" fill="#EEE3FF"/>
<path d="M85.0728 30.3712V19.6355H81.2481V17.6749H91.1128V19.6355H87.2881V30.3712H85.0728Z" fill="#EEE3FF"/>
<path d="M100.599 30.3712L99.6711 27.9347H93.8772L92.9494 30.3712H90.4312L95.3919 17.6749H98.1563L103.117 30.3712H100.599ZM96.7741 19.921L94.502 25.9741H99.0462L96.7741 19.921Z" fill="#EEE3FF"/>
<path d="M104.499 30.3712V17.6749H106.715V28.4106H112.281V30.3712H104.499Z" fill="#EEE3FF"/>
<path d="M127.939 30.3712V24.8321H121.369V30.3712H119.154V17.6749H121.369V22.8715H127.939V17.6749H130.155V30.3712H127.939Z" fill="#EEE3FF"/>
<path d="M141.685 30.3712L140.758 27.9347H134.964L134.036 30.3712H131.518L136.478 17.6749H139.243L144.204 30.3712H141.685ZM137.861 19.921L135.588 25.9741H140.132L137.86 19.921H137.861Z" fill="#EEE3FF"/>
<path d="M152.8 30.3712L149.997 25.6315H147.801V30.3712H145.586V17.6749H151.133C153.633 17.6749 155.261 19.3119 155.261 21.6532C155.261 23.9184 153.784 25.1366 152.269 25.3841L155.356 30.3712H152.8ZM152.989 21.6532C152.989 20.435 152.08 19.6355 150.83 19.6355H147.801V23.6709H150.83C152.08 23.6709 152.989 22.8715 152.989 21.6532Z" fill="#EEE3FF"/>
<path d="M157.476 30.3712V17.6749H163.686C165.996 17.6749 167.284 19.1216 167.284 20.9109C167.284 22.5098 166.261 23.5757 165.088 23.8232C166.432 24.0326 167.53 25.3841 167.53 26.9449C167.53 28.9055 166.224 30.3712 163.857 30.3712H157.476ZM165.012 21.2916C165.012 20.3398 164.368 19.6355 163.232 19.6355H159.691V22.9286H163.232C164.368 22.9286 165.012 22.2433 165.012 21.2916ZM165.258 26.6404C165.258 25.6886 164.595 24.8892 163.327 24.8892H159.691V28.4106H163.327C164.538 28.4106 165.258 27.7444 165.258 26.6404Z" fill="#EEE3FF"/>
<path d="M169.177 24.0329C169.177 20.245 171.847 17.4659 175.634 17.4659C179.421 17.4659 182.09 20.245 182.09 24.0329C182.09 27.8209 179.421 30.6 175.634 30.6C171.847 30.6 169.177 27.8209 169.177 24.0329ZM179.818 24.0329C179.818 21.4061 178.171 19.4455 175.634 19.4455C173.078 19.4455 171.449 21.4061 171.449 24.0329C171.449 26.6407 173.078 28.6203 175.634 28.6203C178.171 28.6203 179.818 26.6407 179.818 24.0329Z" fill="#EEE3FF"/>
<path d="M191.444 30.3712L188.642 25.6315H186.445V30.3712H184.23V17.6749H189.778C192.277 17.6749 193.905 19.3119 193.905 21.6532C193.905 23.9184 192.428 25.1366 190.914 25.3841L194 30.3712H191.444ZM191.633 21.6532C191.633 20.435 190.724 19.6355 189.475 19.6355H186.445V23.6709H189.475C190.724 23.6709 191.633 22.8715 191.633 21.6532Z" fill="#EEE3FF"/>
</svg>
