<svg width="48" height="48" viewBox="0 0 48 48" fill="none" xmlns="http://www.w3.org/2000/svg">
<rect x="1" y="1" width="46" height="46" rx="23" fill="#FFF1C6"/>
<path d="M12.782 30C12.65 30 12.542 29.958 12.458 29.874C12.374 29.79 12.332 29.682 12.332 29.55V17.85C12.332 17.718 12.374 17.61 12.458 17.526C12.542 17.442 12.65 17.4 12.782 17.4H17.3C18.5 17.4 19.502 17.592 20.306 17.976C21.11 18.348 21.722 18.9 22.142 19.632C22.574 20.352 22.802 21.246 22.826 22.314C22.838 22.842 22.844 23.304 22.844 23.7C22.844 24.096 22.838 24.552 22.826 25.068C22.79 26.184 22.568 27.108 22.16 27.84C21.752 28.572 21.152 29.118 20.36 29.478C19.568 29.826 18.578 30 17.39 30H12.782ZM15.194 27.678H17.3C17.9 27.678 18.392 27.588 18.776 27.408C19.16 27.228 19.442 26.946 19.622 26.562C19.814 26.166 19.916 25.656 19.928 25.032C19.94 24.684 19.946 24.372 19.946 24.096C19.958 23.82 19.958 23.544 19.946 23.268C19.946 22.992 19.94 22.686 19.928 22.35C19.904 21.45 19.67 20.79 19.226 20.37C18.794 19.938 18.122 19.722 17.21 19.722H15.194V27.678ZM26.0437 30C25.9117 30 25.8037 29.958 25.7197 29.874C25.6357 29.79 25.5937 29.682 25.5937 29.55V17.85C25.5937 17.718 25.6357 17.61 25.7197 17.526C25.8037 17.442 25.9117 17.4 26.0437 17.4H28.0057C28.1377 17.4 28.2457 17.442 28.3297 17.526C28.4137 17.61 28.4557 17.718 28.4557 17.85V22.35H33.3337V17.85C33.3337 17.718 33.3757 17.61 33.4597 17.526C33.5437 17.442 33.6517 17.4 33.7837 17.4H35.7457C35.8777 17.4 35.9857 17.442 36.0697 17.526C36.1537 17.61 36.1957 17.718 36.1957 17.85V29.55C36.1957 29.682 36.1537 29.79 36.0697 29.874C35.9857 29.958 35.8777 30 35.7457 30H33.7837C33.6517 30 33.5437 29.958 33.4597 29.874C33.3757 29.79 33.3337 29.682 33.3337 29.55V24.906H28.4557V29.55C28.4557 29.682 28.4137 29.79 28.3297 29.874C28.2457 29.958 28.1377 30 28.0057 30H26.0437Z" fill="#575757"/>
<rect x="1" y="1" width="46" height="46" rx="23" stroke="#DEE2E6" stroke-width="2"/>
</svg>
